<svg xmlns="http://www.w3.org/2000/svg" viewBox="0 0 500 500">
<g id="freepik--bird-3--inject-91">
<path d="M352.53,106.94s-7.91,3.29-31.95-4.94-41.49-30-41.82-24,19.43,18.77,19.43,18.77-11.53-4.94-10.21-.66,15.15,14.49,24.37,18.44a55.8,55.8,0,0,0,17.78,4.28s-11.85,4.61-8.23,6.59,14.49.66,14.49.66-8.23,7.57-3.62,9.88,10.54,1.64,10.54,1.64,1.31,7.91,4.93,7.25l3.63-.66s0,8.89,5.93,8.23,6.91-3,6.91-3,.66,3.29,3.62,3.62,5.27-3,5.27-3S352.86,113.85,352.53,106.94Z" style="fill:#5e5e5e"/><path d="M368.76,153.56a3.85,3.85,0,0,1-.48,0,4.75,4.75,0,0,1-3.77-3.08c-.85.81-2.73,2-6.66,2.42a4.78,4.78,0,0,1-3.83-1.14c-2.12-1.91-2.55-5.56-2.63-7l-3.05.56a2.82,2.82,0,0,1-2.18-.5c-2-1.43-3-5.35-3.26-6.7-1.51.11-6.37.26-10.36-1.74a2.79,2.79,0,0,1-1.65-2.14c-.34-2.47,2.54-5.87,4.14-7.54-3.11.29-10.41.75-13.37-.86a1.52,1.52,0,0,1-1-1.44c.12-1.84,4.57-4.06,7.34-5.27a57.75,57.75,0,0,1-15.9-4.14c-9-3.85-23.25-14.2-24.65-18.75a1.67,1.67,0,0,1,.35-1.88c1.09-1,4.08-.35,6.64.47-5.71-4-16.49-12.26-16.23-16.88a1.45,1.45,0,0,1,.75-1.37c1.34-.61,3.81,1.26,9.28,5.53,7.53,5.89,18.91,14.8,32.45,19.43,23.48,8,31.52,5,31.6,5a.51.51,0,0,1,.69.44c.32,6.72,20.8,42.56,21,42.92a.51.51,0,0,1,0,.53C373.92,150.5,371.74,153.56,368.76,153.56Zm-4.05-4.64h.06a.49.49,0,0,1,.43.39c0,.12.63,2.94,3.19,3.22,2.17.24,4-1.78,4.61-2.5-2-3.58-19.61-34.54-20.9-42.45-2.29.6-11.11,1.92-31.68-5.12-13.7-4.69-25.16-13.66-32.75-19.59-3.81-3-7.41-5.79-8.24-5.41-.09,0-.16.23-.17.51-.26,4.63,13.77,14.8,19.2,18.33a.49.49,0,0,1,.17.65.5.5,0,0,1-.64.23c-3.32-1.43-8.46-3-9.48-2.11-.06.06-.24.22-.05.84,1.21,4,14.72,14.12,24.09,18.13a55.55,55.55,0,0,0,17.6,4.24.51.51,0,0,1,.48.42.5.5,0,0,1-.32.55c-3.52,1.37-8.51,3.88-8.6,5.19,0,.06,0,.25.43.49,3.44,1.88,14.08.61,14.19.6a.5.5,0,0,1,.4.86c-1.46,1.35-5.18,5.35-4.85,7.68a1.81,1.81,0,0,0,1.11,1.39c4.42,2.21,10.2,1.6,10.26,1.6a.49.49,0,0,1,.55.41c0,.05.86,5,2.94,6.5a1.8,1.8,0,0,0,1.42.34l3.62-.66a.48.48,0,0,1,.41.11.49.49,0,0,1,.18.38s0,4.79,2.32,6.84a3.71,3.71,0,0,0,3.05.9c5.48-.61,6.51-2.66,6.52-2.68A.51.51,0,0,1,364.71,148.92Z" style="fill:#263238"/><path d="M347.59,108.25s-13.84,4.61-11.86,5.6,5.6.66,5.6.66-6.92,6.92-3,7.58,7.24-3,7.24-3-1.65,4.94,1,4.61,3.95-3.29,3.95-3.29,1.32,7.9,4.94,8.23,4.28-4.28,4.28-4.28l6.92,5.27s-9.88-22.72-10.21-23.71S347.59,108.25,347.59,108.25Z" style="fill:#263238"/><path d="M366.69,130.16a.57.57,0,0,1-.31-.1l-6.28-4.79c-.49,1.78-1.89,4.15-4.65,3.9-3.05-.28-4.56-5-5.13-7.37a5.47,5.47,0,0,1-3.66,2.43,1.63,1.63,0,0,1-1.57-.55,4.13,4.13,0,0,1-.36-3.1,8.51,8.51,0,0,1-6.45,2,1.74,1.74,0,0,1-1.55-1.16c-.56-1.72,1.92-4.76,3.38-6.36a10.84,10.84,0,0,1-4.6-.76.75.75,0,0,1-.47-.74c.1-1.4,6.78-3.91,12.38-5.78,2.37-.91,8-3,9.15-2.41a.71.71,0,0,1,.38.42c.26.77,6.78,15.82,10.2,23.67a.51.51,0,0,1-.15.59A.53.53,0,0,1,366.69,130.16Zm-16.14-10.22h.06a.5.5,0,0,1,.43.42c.35,2.09,1.84,7.57,4.5,7.81,3.1.29,3.71-3.68,3.74-3.85a.47.47,0,0,1,.3-.39.5.5,0,0,1,.49.06l5.39,4.11c-2.25-5.19-8.67-20-9.4-21.84-.9-.12-4.91,1.16-8.29,2.46h0c-4.94,1.65-10.48,3.84-11.56,4.78a13.44,13.44,0,0,0,5.1.5.51.51,0,0,1,.5.29.49.49,0,0,1-.1.56c-1.89,1.89-4.38,5.08-4,6.26,0,.09.12.36.77.47,3.64.61,6.76-2.77,6.79-2.81a.51.51,0,0,1,.85.5c-.4,1.19-.73,3.15-.23,3.77a.7.7,0,0,0,.68.19c2.31-.29,3.54-3,3.55-3A.5.5,0,0,1,350.55,119.94Zm-3-11.69h0Z" style="fill:#263238"/><path d="M352.53,106.94s-7.91,3.29-31.95-4.94-41.49-30-41.82-24,19.43,18.77,19.43,18.77-11.53-4.94-10.21-.66a5.91,5.91,0,0,0,.85,1.58,104,104,0,0,0,9.69,4.35c16.13,6.58,18.77,7.9,31,7.57,0,0,0,3.62,8.9,1.65A121.84,121.84,0,0,0,352.53,107Z" style="fill:#263238"/><path d="M333.77,112.31a6.07,6.07,0,0,1-3.84-1,2.57,2.57,0,0,1-.86-1.21c-11.41.27-14.51-1-28.72-6.79l-2-.83a105.22,105.22,0,0,1-9.74-4.37.61.61,0,0,1-.17-.15,6.66,6.66,0,0,1-.92-1.72,1.67,1.67,0,0,1,.35-1.88c1.09-1,4.08-.35,6.64.47-5.72-4-16.49-12.26-16.23-16.88a1.45,1.45,0,0,1,.75-1.37c1.34-.61,3.81,1.26,9.28,5.53,7.53,5.89,18.91,14.8,32.45,19.43,23.48,8,31.52,5,31.6,5a.5.5,0,0,1,.46,0,.54.54,0,0,1-.1.94,120.89,120.89,0,0,1-14.23,4.25A22.26,22.26,0,0,1,333.77,112.31Zm-4.3-3.24a.5.5,0,0,1,.35.14.51.51,0,0,1,.15.36,1.45,1.45,0,0,0,.62,1c.72.55,2.66,1.3,7.67.19,3.32-.74,6.63-1.71,9.51-2.64-4.74.1-13.31-.81-27.35-5.62-13.7-4.69-25.16-13.66-32.75-19.59-3.81-3-7.41-5.79-8.24-5.41-.09,0-.16.23-.17.51-.26,4.63,13.77,14.8,19.2,18.33a.49.49,0,0,1,.17.65.5.5,0,0,1-.64.23c-3.32-1.43-8.46-3-9.47-2.11-.07.06-.25.22-.06.84a5.07,5.07,0,0,0,.71,1.35c1.86,1,5.07,2.44,9.54,4.26l2,.83c14.22,5.81,17.17,7,28.73,6.71ZM353,106.94h0Z" style="fill:#263238"/><path d="M390.73,93.1s-3.63,1.32-15.48-7.9-21.08-6.59-25.69.33-1,15.48.33,20.09,2,12.18,8.56,27.33,22.73,29,26.35,31.62-20.42,36.55-14.16,37.87,11.52-13.5,11.52-13.5-4.28,28,.33,28.32,8.9-14.82,8.9-14.82-1.32,24,4.61,22.39,7.24-12.18,7.24-12.18,4.61,11.85,8.23,9.55,4-9.88,4-9.88,10.2,9.22,12.51,4.28-2.63-14.49-2.63-14.49,4.94,5.27,7.24,1.32,3.29-8.57-5.27-19.43-22.06-26.35-22.06-26.35,6.25-18.11,2-35.24S399.29,99,390.73,93.1Z" style="fill:#D4EDFC"/><path d="M395.44,225.41a2.41,2.41,0,0,1-1.51-.54c-3-2.42-3.25-13.13-3.16-18.85-1.58,4.53-4.64,11.74-8.13,11.74h-.18a1.76,1.76,0,0,1-1.25-.71c-2.44-3.06-1-17.35-.07-24.35-2.05,4.42-6,11.2-10.6,10.23a1.7,1.7,0,0,1-1.22-1c-1.2-2.58,2.44-9.75,8.13-20.4,3.53-6.61,8.37-15.65,7.06-16.61-3.92-2.85-19.89-16.59-26.51-31.82a114.16,114.16,0,0,1-7.69-23.63c-.32-1.45-.59-2.7-.9-3.76-.16-.56-.35-1.17-.56-1.83-1.55-4.94-3.89-12.4.3-18.68a13.88,13.88,0,0,1,9.44-6.3c5.11-.83,11,1.2,17,5.86,11.3,8.79,15,7.83,15,7.82a.56.56,0,0,1,.44.06c8.8,6.09,12.38,12.46,16.67,29.6,4,15.92-1.14,32.89-1.9,35.25,1.66,1.91,14,16.09,21.89,26.15,8.12,10.3,8.05,15.29,5.31,20a3.15,3.15,0,0,1-2.39,1.7,6,6,0,0,1-3.86-1.38c1.34,3.16,3.39,9.12,1.66,12.81a2.8,2.8,0,0,1-2.06,1.67c-3.2.66-8.52-3.48-10.48-5.14-.23,2.2-1.09,7.36-4.11,9.28a2.29,2.29,0,0,1-2,.24c-2.56-.84-5.09-5.84-6.26-8.46-.66,3.14-2.57,9.6-7.31,10.91A2.45,2.45,0,0,1,395.44,225.41Zm-4.05-23.47h.08a.49.49,0,0,1,.41.52c-.28,5.18-.35,19.18,2.68,21.62a1.36,1.36,0,0,0,1.3.26c5.54-1.54,6.87-11.66,6.89-11.76a.49.49,0,0,1,.43-.44.5.5,0,0,1,.53.32c.91,2.35,3.83,8.63,6.31,9.44a1.31,1.31,0,0,0,1.19-.13c3.36-2.14,3.71-9.41,3.72-9.48a.47.47,0,0,1,.3-.44.49.49,0,0,1,.53.09c1.93,1.74,7.55,6.12,10.37,5.55a1.85,1.85,0,0,0,1.36-1.11c2.17-4.66-2.58-14-2.63-14a.5.5,0,0,1,.16-.64.49.49,0,0,1,.65.07s2.69,2.85,4.81,2.61a2.15,2.15,0,0,0,1.64-1.21c2.07-3.55,3.38-7.94-5.23-18.86C418.43,173.57,405,158.13,404.84,158a.51.51,0,0,1-.1-.49c.07-.18,6.16-18.18,2-34.95s-7.66-23-16.09-28.9c-1.09.18-5.28,0-15.68-8-5.77-4.49-11.36-6.45-16.19-5.67A12.93,12.93,0,0,0,350,85.81c-3.92,5.88-1.67,13.06-.17,17.82.21.67.4,1.29.56,1.85.32,1.1.59,2.36.91,3.83a114.71,114.71,0,0,0,7.63,23.44c6.47,14.87,22.55,28.77,26.18,31.41,1.93,1.4-1.15,7.4-6.75,17.89-4.1,7.66-9.19,17.19-8.11,19.5a.66.66,0,0,0,.51.4c5.77,1.21,10.9-13,10.95-13.18a.52.52,0,0,1,.6-.32.5.5,0,0,1,.37.56c-1,6.6-3.1,24.38-.67,27.41a.73.73,0,0,0,.54.34h.12c3.41,0,7.11-10.4,8.25-14.46A.51.51,0,0,1,391.39,201.94Z" style="fill:#263238"/><path d="M360.76,114.84c7.57-2.63,9.55-14.16,14.82-18.11a22,22,0,0,1,11.85-4v-.17c-2.39-.83-6.26-2.8-12.18-7.41-11.86-9.22-21.08-6.59-25.69.33s-1,15.48.33,20.09C349.89,105.62,353.18,117.47,360.76,114.84Z" style="fill:#263238"/><path d="M358.61,115.72a6.19,6.19,0,0,1-2.91-.73c-4.31-2.26-6.21-8.95-6.29-9.24-.16-.55-.35-1.16-.56-1.82-1.55-4.94-3.89-12.4.3-18.68a13.88,13.88,0,0,1,9.44-6.3c5.11-.83,11,1.2,17,5.86s9.89,6.59,12,7.33a.48.48,0,0,1,.34.45v.19a.51.51,0,0,1-.5.5,21.66,21.66,0,0,0-11.55,3.85c-2.1,1.58-3.69,4.46-5.36,7.51-2.45,4.46-5,9.07-9.6,10.67h0A6.79,6.79,0,0,1,358.61,115.72Zm2.26-35.95a13.48,13.48,0,0,0-2.12.16A12.93,12.93,0,0,0,350,85.81c-3.92,5.88-1.67,13.06-.17,17.82.21.67.4,1.29.56,1.85,0,.07,1.87,6.57,5.8,8.63a5.42,5.42,0,0,0,4.42.26h0c4.25-1.48,6.69-5.92,9.05-10.21,1.73-3.15,3.36-6.13,5.64-7.83a21.7,21.7,0,0,1,10.3-3.92,55.35,55.35,0,0,1-10.64-6.81C370,81.75,365.19,79.77,360.87,79.77Z" style="fill:#263238"/><path d="M349.23,95.74s-8.56,5.93-4.28,6.26,8.56-2.31,8.89-4S349.23,95.74,349.23,95.74Z" style="fill:#5e5e5e"/><path d="M345.71,102.53l-.8,0c-.92-.08-1.46-.4-1.62-1-.48-1.79,4.21-5.2,5.66-6.2a.54.54,0,0,1,.35-.09c.39.06,3.86.55,4.79,1.86a1.28,1.28,0,0,1,.24,1C354,100,350,102.53,345.71,102.53Zm3.65-6.27c-2.91,2-5.28,4.36-5.1,5,0,.08.23.2.73.24,4.05.31,8.09-2.19,8.36-3.55a.28.28,0,0,0-.07-.27C352.79,97,350.69,96.46,349.36,96.26Z" style="fill:#263238"/><path d="M376.9,89.48s-4.29-4.61-7.91-4.28S353.18,96.73,353.84,98s14.49,3,18.45,0S378.54,93.76,376.9,89.48Z" style="fill:#fff"/><path d="M363.92,100.2a39.2,39.2,0,0,1-8.2-.83c-1.78-.42-2.18-.81-2.32-1.1a1.29,1.29,0,0,1,.18-1.16C355.13,94.34,365.34,85,369,84.7c3.83-.34,8.13,4.25,8.31,4.44a.39.39,0,0,1,.1.16c1.68,4.35-.59,6-4,8.57l-.76.57C370.86,99.74,367.41,100.2,363.92,100.2Zm-9.59-2.34c1.18,1,13.95,2.57,17.66-.21l.77-.58c3.45-2.57,5-3.75,3.7-7.32-.54-.55-4.31-4.33-7.42-4C365.67,86,354.74,96.13,354.33,97.86Z" style="fill:#263238"/><path d="M386.45,96.4a38.42,38.42,0,0,0,16.79-11.53c7.58-8.89,6.59-35.56,9.88-43.14s.66,25,.66,26.35,18.11-40.51,19.76-34.91-6.92,31.28-6.92,31.28A47.22,47.22,0,0,0,444.74,47c7.57-12.51,6.91-1,2.63,6.59s-11.86,16.46-11.86,16.46S452,64.12,460.21,54.9s4.28,2-1,7.91S445.06,74,445.06,74s6.92,0,17.79-4,16.79-5.6,12.51-.66-16.79,9.55-16.79,9.55,25.35-2,23.05,1.32-8.23,6.26-8.23,6.26,9.22,4.28,5.27,6.91S472.07,98,472.07,98s7.24,4.62,3.95,7.91a23.36,23.36,0,0,1-6.26,4.61s8.24,4,5.27,5.6a22,22,0,0,1-7.57,2s4,5.6-.33,7.58a19.19,19.19,0,0,1-7.25,2s2,3.63,1,4.94-4.28,1.32-4.28,1.32-1,5.27-3.62,5.93a27.6,27.6,0,0,1-6.92.33,3,3,0,0,1-.66,4.61,5,5,0,0,1-5.59,0s.32,4.28-2.64,5.27-5.27-2.31-5.27-2.31-1,5.27-4.28,4.61-5.93-4.94-5.93-4.94-2,3-4.28,1.32-5.93-9.22-5.93-9.22,0,7.24-4.94,2-1.64-17.45-5.59-25.35a42.07,42.07,0,0,0-10.21-12.85" style="fill:#5e5e5e"/><path d="M428.17,152.94a3.09,3.09,0,0,1-.66-.07c-2.74-.55-5-3.35-5.86-4.58a4.36,4.36,0,0,1-2.31,1.42,2.88,2.88,0,0,1-2.23-.54c-1.74-1.25-4.11-5.54-5.32-7.88a3.25,3.25,0,0,1-1.6,2.52c-1.07.43-2.39-.21-4-1.95-2.77-3-3.06-7.84-3.36-13-.26-4.37-.53-8.89-2.32-12.47a41.88,41.88,0,0,0-10.07-12.67.51.51,0,0,1-.09-.71.52.52,0,0,1,.71-.08,42.89,42.89,0,0,1,10.34,13c1.88,3.77,2.16,8.39,2.42,12.86.3,5,.58,9.69,3.1,12.38,1.26,1.35,2.3,2,2.92,1.71.94-.37,1.15-2.59,1.15-3.34a.51.51,0,0,1,.39-.49.49.49,0,0,1,.56.27c0,.08,3.6,7.48,5.77,9a1.85,1.85,0,0,0,1.47.38,3.88,3.88,0,0,0,2.11-1.56.49.49,0,0,1,.42-.23.54.54,0,0,1,.42.24s2.56,4.1,5.6,4.71a2,2,0,0,0,1.6-.31c1.53-1,2.08-3.87,2.09-3.9a.52.52,0,0,1,.39-.4.5.5,0,0,1,.51.2s2.13,3,4.7,2.12,2.3-4.72,2.3-4.75a.49.49,0,0,1,.25-.48.5.5,0,0,1,.54,0,4.44,4.44,0,0,0,5,0,2.59,2.59,0,0,0,1.27-1.74,3.13,3.13,0,0,0-.71-2.12.5.5,0,0,1-.07-.56.49.49,0,0,1,.48-.27,27.63,27.63,0,0,0,6.76-.32c1.9-.47,3-4.15,3.25-5.53a.49.49,0,0,1,.49-.41c.85,0,3.2-.2,3.88-1.12.55-.73-.27-3-1-4.4a.5.5,0,0,1,0-.49.52.52,0,0,1,.43-.25,18.93,18.93,0,0,0,7-1.93,2.65,2.65,0,0,0,1.6-1.75c.57-2.14-1.45-5-1.47-5.08a.5.5,0,0,1,0-.5.51.51,0,0,1,.41-.29,21.51,21.51,0,0,0,7.37-1.91c.39-.22.39-.4.39-.47,0-1.07-3.31-3.13-5.63-4.24a.51.51,0,0,1-.29-.46.52.52,0,0,1,.3-.45,23.09,23.09,0,0,0,6.11-4.51,2.15,2.15,0,0,0,.7-1.82c-.28-2.54-4.53-5.28-4.57-5.3a.51.51,0,0,1-.23-.41.47.47,0,0,1,.2-.41s2.69-2,6.61-4.63c.81-.54.77-1,.76-1.18-.13-1.58-3.72-3.83-6-4.87a.51.51,0,0,1,0-.9c.06,0,5.84-2.95,8-6.09a.28.28,0,0,0,.06-.12c-.53-1.3-12.18-1.23-22.66-.42a.5.5,0,0,1-.22-1c.13,0,12.45-4.63,16.59-9.41,1.45-1.67,1.27-2.1,1.27-2.1-.69-1-10.13,2.42-13.23,3.55-10.83,3.94-17.67,4-18,4a.5.5,0,0,1-.48-.36.52.52,0,0,1,.23-.57c.09,0,8.89-5.3,14-11.09,3.77-4.24,6-9.91,5.55-10.62,0,0-.77,0-3.81,3.38-8.23,9.21-24.74,15.22-24.91,15.28a.5.5,0,0,1-.58-.18.51.51,0,0,1,0-.61c.08-.09,7.6-8.94,11.8-16.39,2.85-5,3.63-10.87,2.77-11.37,0,0-1.08-.43-4.54,5.29a48.2,48.2,0,0,1-18.32,17.65.53.53,0,0,1-.55-.08.5.5,0,0,1-.14-.53c.08-.26,8.49-25.6,6.91-31a.45.45,0,0,0-.08-.18c-2.06.17-11.71,20.61-15.34,28.31-3.43,7.26-3.43,7.27-4,7.15a.53.53,0,0,1-.4-.51c0-.21.05-1,.15-2.49,1.16-17.59.94-23.06.48-24.32a5.57,5.57,0,0,0-.33.66c-1.22,2.8-1.84,8.3-2.56,14.67-1.21,10.76-2.59,22.95-7.4,28.6a38.54,38.54,0,0,1-17,11.68.51.51,0,0,1-.62-.34.5.5,0,0,1,.35-.62,38.34,38.34,0,0,0,16.55-11.37c4.61-5.41,6-18,7.17-28.06.73-6.45,1.35-12,2.63-15,.35-.79.8-1.58,1.47-1.42,1,.25,1.82,2.39.3,25.55,0,.08,0,.16,0,.24.61-1.25,1.43-3,2.32-4.89,8.83-18.69,14.06-28.86,16.33-28.86h.05c.25,0,.7.15.91.87,1.48,5-4.85,25.21-6.53,30.4a48.5,48.5,0,0,0,16.82-16.69c3.64-6,5.11-6.09,5.9-5.63,1.9,1.11.24,8-2.4,12.72a122.16,122.16,0,0,1-10.68,15.06c4.47-1.82,16.24-7.08,22.71-14.32,3.56-4,4.64-4,5.24-3.45,1.5,1.34-2.33,8.47-5.48,12-3.87,4.36-9.73,8.39-12.59,10.24a66.17,66.17,0,0,0,15.67-3.8c10.17-3.7,13.53-4.44,14.4-3.18.47.69.05,1.71-1.34,3.32-3.05,3.52-10,6.8-14,8.5,6.93-.44,19.23-.92,20.42,1.15a1.06,1.06,0,0,1-.11,1.18c-1.84,2.62-5.79,5-7.55,6,1.79.93,5.49,3.11,5.65,5.26a2.24,2.24,0,0,1-1.2,2.09c-2.84,1.9-5,3.47-6,4.18,1.28.92,4.17,3.23,4.43,5.63a3.1,3.1,0,0,1-1,2.64,25.39,25.39,0,0,1-5.51,4.25c1.8.94,5.27,3,5.32,4.67a1.5,1.5,0,0,1-.9,1.37,20.54,20.54,0,0,1-7,2c.64,1.11,1.68,3.32,1.18,5.21a3.64,3.64,0,0,1-2.15,2.4,21.63,21.63,0,0,1-6.67,2c.59,1.24,1.5,3.6.6,4.79s-3.29,1.46-4.27,1.51c-.3,1.3-1.42,5.3-3.91,5.92a24,24,0,0,1-6.09.4,3.6,3.6,0,0,1,.38,2,3.51,3.51,0,0,1-1.71,2.44,5.38,5.38,0,0,1-5.37.44c-.08,1.41-.54,4.08-3,4.89s-4.23-.72-5.19-1.72a6.72,6.72,0,0,1-2.26,3.58A3,3,0,0,1,428.17,152.94Z" style="fill:#263238"/><path d="M407.19,122.41c4.13,0,.78-4.24-.86-6.08,1.51,1.57,4.8,4.7,5.8,3.45,1.32-1.65-1-7.25-1-7.25s4.29,3,7.91,2.64-6.59-8.23-6.59-8.23,13.83,3.29,15.48,2-10.87-6.25-10.87-6.25,6.26-.33,8.56-2.31-7.24-6.59-7.24-6.59,4.94-1.31,6.59-4.28-16.14,1.32-16.14,1.32,6.26-4.94,9.22-9.22-8.23,0-8.23,0l1-4.94L405.61,81a16.11,16.11,0,0,1-2.37,3.89A38.42,38.42,0,0,1,386.45,96.4l4.28,6.91a42.07,42.07,0,0,1,10.21,12.85,16.65,16.65,0,0,1,1.17,3.17A5.71,5.71,0,0,0,407.19,122.41Z" style="fill:#263238"/><path d="M407.19,122.91a6.19,6.19,0,0,1-5.51-3.33.61.61,0,0,1-.05-.12,16.07,16.07,0,0,0-1.14-3.08,41.88,41.88,0,0,0-10.07-12.67.49.49,0,0,1-.12-.13L386,96.66a.5.5,0,0,1,.29-.74,38.34,38.34,0,0,0,16.55-11.37,15.89,15.89,0,0,0,2.29-3.78.49.49,0,0,1,.14-.18l5.21-4.34a.5.5,0,0,1,.57,0,.51.51,0,0,1,.24.53l-.82,4.06c2.67-1,7.31-2.4,8.34-1.08.6.76-.12,1.8-.36,2.14a48.17,48.17,0,0,1-7.67,8c5.15-1.17,13.45-2.76,14.6-1.25a1,1,0,0,1,0,1.15c-1.23,2.21-4.09,3.53-5.71,4.13,2.22,1.16,6.53,3.64,6.78,5.57a1.4,1.4,0,0,1-.52,1.3c-1.56,1.34-4.72,2-6.81,2.23,3.72,1.54,9.21,4.06,9.43,5.54a.82.82,0,0,1-.33.8c-1.43,1.14-9.54-.46-13.76-1.39,2.67,2.21,6.23,5.47,5.79,7-.09.32-.37.72-1.19.8-2.56.23-5.39-1.07-7-2,.63,1.87,1.47,5.05.4,6.38a1.26,1.26,0,0,1-.95.48,4.06,4.06,0,0,1-2.28-.93,2.71,2.71,0,0,1,.24,2.2C409.21,122.55,408.42,122.91,407.19,122.91Zm-4.61-3.78a5.14,5.14,0,0,0,4.61,2.78c.55,0,1.25-.08,1.43-.48.25-.57-.31-2.13-2.67-4.76a.51.51,0,0,1,.74-.69c2.17,2.25,4.05,3.63,4.83,3.59a.27.27,0,0,0,.22-.1c.83-1-.21-4.69-1.06-6.74a.51.51,0,0,1,.15-.58.51.51,0,0,1,.6,0s4.17,2.86,7.57,2.55a.56.56,0,0,0,.33-.09c.25-.7-3.1-4.09-7.17-7.25a.5.5,0,0,1-.15-.61.5.5,0,0,1,.57-.27c6.53,1.56,13.81,2.75,15,2.12-.51-1-5.85-3.55-10.67-5.45a.5.5,0,0,1-.31-.55.49.49,0,0,1,.47-.41c.06,0,6.11-.35,8.26-2.19a.42.42,0,0,0,.18-.41c-.18-1.41-4.59-4-7.32-5.35a.49.49,0,0,1-.28-.49.5.5,0,0,1,.37-.44c.05,0,4.76-1.3,6.28-4a.3.3,0,0,0,0-.11c-.71-.8-8.67.48-15.62,2.16a.5.5,0,0,1-.43-.88c.06,0,6.23-5,9.12-9.12.44-.63.43-.9.4-1-.44-.56-4.2.24-8,1.71a.5.5,0,0,1-.5-.09.49.49,0,0,1-.17-.48l.71-3.55-4,3.36a17.11,17.11,0,0,1-2.4,3.91,39.25,39.25,0,0,1-16.41,11.48l3.9,6.3a43,43,0,0,1,10.27,13A16.91,16.91,0,0,1,402.58,119.13Z" style="fill:#263238"/><path d="M408.09,161a21,21,0,0,1-.57,2.94c-.33,1-4.61-3.29-4.61-3.29l2,7.24-4.28-2.63s2,5.26,1.64,8.89-11.19-10.54-11.19-10.54a25.76,25.76,0,0,1,0,7.57c-.57,3.12-4.79-4-6-6a2.58,2.58,0,0,1,0,1l1,4.69H383.5c-4.74,10.58-17.64,30.61-12.86,31.62,6.26,1.32,11.52-13.5,11.52-13.5s-4.28,28,.33,28.32,8.9-14.82,8.9-14.82-1.32,24,4.61,22.39,7.24-12.18,7.24-12.18,4.61,11.85,8.23,9.55,4-9.88,4-9.88,10.2,9.22,12.51,4.28-2.63-14.49-2.63-14.49,4.94,5.27,7.24,1.32,3.29-8.57-5.27-19.43C421.16,176.23,412.52,166.11,408.09,161Z" style="fill:#263238"/><path d="M395.44,225.41a2.41,2.41,0,0,1-1.51-.54c-3-2.42-3.25-13.13-3.16-18.85-1.58,4.53-4.64,11.74-8.13,11.74h-.18a1.76,1.76,0,0,1-1.25-.71c-2.44-3.06-1-17.35-.07-24.35-2.05,4.42-6,11.2-10.6,10.23a1.7,1.7,0,0,1-1.22-1c-1.2-2.58,2.44-9.75,8.13-20.4,2.17-4.05,4.21-7.88,5.59-11a.51.51,0,0,1,.46-.3h2l-.86-4.09a.5.5,0,0,1,0-.17,2.26,2.26,0,0,0,0-.83.51.51,0,0,1,.3-.59.5.5,0,0,1,.62.22c2.73,4.8,4.45,6.57,4.91,6.57h0a.94.94,0,0,0,.11-.37,24.8,24.8,0,0,0,0-7.4.51.51,0,0,1,.3-.54.5.5,0,0,1,.59.15c4.08,5.31,9.12,10.94,10.28,10.94h0s0-.06,0-.14c.31-3.46-1.6-8.62-1.62-8.67a.48.48,0,0,1,.15-.56.5.5,0,0,1,.58,0l3.2,2-1.64-6a.5.5,0,0,1,.23-.57.52.52,0,0,1,.61.08,21.7,21.7,0,0,0,3.85,3.24,24.92,24.92,0,0,0,.47-2.6.49.49,0,0,1,.36-.41.49.49,0,0,1,.52.15c4.57,5.3,13.14,15.35,19.2,23.05,8.12,10.3,8.05,15.29,5.31,20a3.15,3.15,0,0,1-2.39,1.7,6,6,0,0,1-3.86-1.38c1.34,3.16,3.39,9.12,1.66,12.81a2.8,2.8,0,0,1-2.06,1.67c-3.2.66-8.52-3.48-10.48-5.14-.23,2.2-1.09,7.36-4.11,9.28a2.29,2.29,0,0,1-2,.24c-2.56-.84-5.09-5.84-6.26-8.46-.66,3.14-2.57,9.6-7.31,10.91A2.45,2.45,0,0,1,395.44,225.41Zm-4.05-23.47h.08a.49.49,0,0,1,.41.52c-.28,5.18-.35,19.18,2.68,21.62a1.36,1.36,0,0,0,1.3.26c5.54-1.54,6.87-11.66,6.89-11.76a.49.49,0,0,1,.43-.44.5.5,0,0,1,.53.32c.91,2.35,3.83,8.63,6.31,9.44a1.31,1.31,0,0,0,1.19-.13c3.36-2.14,3.71-9.41,3.72-9.48a.47.47,0,0,1,.3-.44.49.49,0,0,1,.53.09c1.93,1.74,7.54,6.12,10.37,5.55a1.85,1.85,0,0,0,1.36-1.11c2.17-4.66-2.58-14-2.63-14a.5.5,0,0,1,.16-.64.49.49,0,0,1,.65.07s2.69,2.85,4.81,2.61a2.15,2.15,0,0,0,1.64-1.21c2.07-3.55,3.38-7.94-5.23-18.86-5.76-7.31-13.77-16.73-18.47-22.19a15.86,15.86,0,0,1-.42,1.95.71.71,0,0,1-.51.47c-.71.16-2.18-1-3.62-2.31l1.5,5.5a.51.51,0,0,1-.18.53.52.52,0,0,1-.56,0l-3.11-1.91a22.33,22.33,0,0,1,1.23,7.78,1,1,0,0,1-.7,1c-1.79.51-7.17-5.9-10.29-9.87a24.13,24.13,0,0,1-.21,5.94c-.16.87-.59,1.12-.92,1.18s-1.49.25-4.71-4.95l.69,3.25a.53.53,0,0,1-.1.42.5.5,0,0,1-.39.18h-2.3c-1.39,3.06-3.38,6.79-5.49,10.73-4.09,7.66-9.18,17.19-8.1,19.5a.66.66,0,0,0,.51.4c5.77,1.21,10.9-13,10.95-13.18a.52.52,0,0,1,.6-.32.5.5,0,0,1,.37.56c-1,6.6-3.1,24.38-.67,27.41a.73.73,0,0,0,.54.34h.12c3.41,0,7.11-10.4,8.25-14.46A.51.51,0,0,1,391.39,201.94Z" style="fill:#263238"/><path d="M360.43,90a2.14,2.14,0,1,1-2.14-2.14A2.14,2.14,0,0,1,360.43,90Z" style="fill:#fff"/><path d="M358.29,92.62A2.64,2.64,0,1,1,360.93,90,2.64,2.64,0,0,1,358.29,92.62Zm0-4.28A1.64,1.64,0,1,0,359.93,90,1.63,1.63,0,0,0,358.29,88.34Z" style="fill:#263238"/><path d="M372.36,158a3.56,3.56,0,0,1-2.52-1.69c-1.22-1.57-2.94-5-2.35-7.34a2,2,0,0,1,1.27-1.45c2-.73,5.71,1.82,6.79,2.62a1,1,0,0,1-1.19,1.61c-2-1.47-4.39-2.61-4.93-2.35-.47,1.94,1.64,5.72,2.74,6.48a5.76,5.76,0,0,0-.32-1.57,1,1,0,1,1,1.88-.68c.21.58.82,2.56,0,3.66A1.68,1.68,0,0,1,372.36,158Z" style="fill:#263238"/><path d="M368.9,157.81a1,1,0,0,1-.38-.07c-2.62-1.05-5.75-6.16-4.74-8.69a2.37,2.37,0,0,1,1.47-1.43c1.53-.5,3.38.55,3.73.77a1,1,0,0,1,.34,1.37,1,1,0,0,1-1.38.34,3.42,3.42,0,0,0-2.06-.58c-.06,0-.15,0-.24.27-.54,1.35,1.87,5.39,3.63,6.09a1,1,0,0,1-.37,1.93Z" style="fill:#263238"/><path d="M366.52,156.08a.94.94,0,0,1-.37-.07c-.44-.17-4.3-1.72-5.31-4a2.07,2.07,0,0,1,.08-2c.83-1.38,3.25-1.61,3.72-1.64a1,1,0,0,1,1.07.93,1,1,0,0,1-.93,1.07,3.74,3.74,0,0,0-2.15.67.46.46,0,0,0,0,.13c.51,1.14,2.85,2.4,4.21,2.93a1,1,0,0,1-.36,1.93Z" style="fill:#263238"/><path d="M387.84,156.61a3.54,3.54,0,0,1-2.51-1.69c-1.22-1.57-2.95-4.95-2.35-7.34a2,2,0,0,1,1.27-1.45c2-.73,5.71,1.82,6.78,2.62a1,1,0,1,1-1.19,1.61c-2-1.47-4.38-2.61-4.92-2.34-.47,1.93,1.64,5.71,2.73,6.47a5.4,5.4,0,0,0-.32-1.57,1,1,0,0,1,1.89-.68c.2.58.82,2.56,0,3.66A1.7,1.7,0,0,1,387.84,156.61Z" style="fill:#263238"/><path d="M384.38,156.39a1,1,0,0,1-.37-.07c-2.63-1-5.75-6.16-4.74-8.69a2.33,2.33,0,0,1,1.46-1.42c1.53-.51,3.39.54,3.74.76a1,1,0,0,1,.33,1.37,1,1,0,0,1-1.37.34,3.42,3.42,0,0,0-2.06-.58c-.06,0-.16.05-.24.27-.54,1.35,1.87,5.39,3.62,6.09a1,1,0,0,1,.56,1.3A1,1,0,0,1,384.38,156.39Z" style="fill:#263238"/><path d="M382,154.66a.92.92,0,0,1-.36-.07c-.44-.17-4.31-1.72-5.31-4a2.07,2.07,0,0,1,.07-2c.83-1.38,3.25-1.61,3.73-1.64a1,1,0,0,1,1.06.93,1,1,0,0,1-.92,1.07,3.78,3.78,0,0,0-2.16.67l.05.13c.5,1.13,2.85,2.4,4.21,2.93a1,1,0,0,1-.37,1.93Z" style="fill:#263238"/></g></svg>